# This file uses centimeters as units for non-parametric coordinates.

mtllib bot4.mtl
g default
v -11.790091 7.329623 11.790091
v -11.847820 7.845575 12.371019
v -12.371019 7.845575 11.847820
v 12.371019 7.845575 11.847820
v 11.824687 7.871422 12.374091
v 11.790091 7.329623 11.790091
v -13.284030 81.146447 13.833434
v -13.171483 81.622653 13.171483
v -13.833434 81.146447 13.284030
v 13.833434 81.146447 13.284030
v 13.171483 81.622653 13.171483
v 13.284030 81.146447 13.833434
v -13.833434 81.146447 -13.284030
v -13.171483 81.622653 -13.171483
v -13.284030 81.146447 -13.833434
v 13.284030 81.146447 -13.833434
v 13.171483 81.622653 -13.171483
v 13.833434 81.146447 -13.284030
v -11.824687 7.871422 -12.374091
v -11.790091 7.329623 -11.790091
v -12.374091 7.871422 -11.824687
v 12.374091 7.871422 -11.824687
v 11.790091 7.329623 -11.790091
v 11.824687 7.871422 -12.374091
v -18.741061 67.725230 19.293164
v -19.292422 67.727059 18.737621
v -19.397954 66.955357 18.851250
v -18.851250 66.955357 19.397954
v 19.293164 67.725230 18.741061
v 18.737621 67.727059 19.292422
v 18.851250 66.955357 19.397954
v 19.397954 66.955357 18.851250
v -19.293164 67.725230 -18.741061
v -18.737621 67.727059 -19.292422
v -18.851250 66.955357 -19.397954
v -19.397954 66.955357 -18.851250
v 19.397954 66.955357 -18.851250
v 18.854185 66.957317 -19.398187
v 18.741061 67.725230 -19.293164
v 19.293164 67.725230 -18.741061
vt 0.375000 0.994700
vt 0.380276 0.994724
vt 0.620088 1.000000
vt 0.380313 0.001573
vt 0.619724 0.994724
vt 0.625000 0.755564
vt 0.630313 0.001573
vt 0.378532 0.247762
vt 0.375000 0.253237
vt 0.379291 0.254291
vt 0.375000 0.495001
vt 0.619965 0.247762
vt 0.625000 0.254999
vt 0.375000 0.500000
vt 0.375000 0.562073
vt 0.379291 0.495709
vt 0.620709 0.495709
vt 0.625000 0.500000
vt 0.375000 0.749030
vt 0.375000 0.569101
vt 0.379271 0.748349
vt 0.619724 0.755276
vt 0.625000 0.749183
vt 0.619421 0.748349
vt 0.625000 0.569340
vt 0.379120 0.181727
vt 0.621486 0.181727
vt 0.619916 0.184698
vt 0.369916 0.184698
vt 0.128549 0.184690
vt 0.129120 0.181727
vt 0.629120 0.181727
vt 0.871486 0.181727
vt 0.869940 0.184690
vt 0.380084 0.565302
vt 0.621451 0.565310
vt 0.620900 0.568267
vt 0.378549 0.184690
vt 0.620709 0.254291
vt 0.380035 0.502238
vt 0.621468 0.502238
vt 0.380276 0.755276
vt 0.628549 0.184690
vt 0.869965 0.247762
vt 0.369965 0.247762
vt 0.128532 0.247762
vt 0.378514 0.568273
vt 0.130579 0.001651
vt 0.370933 0.001573
vt 0.371486 0.181727
vt 0.620729 0.001651
vt 0.870729 0.001651
vt 0.380300 1.000000
vt 0.625000 0.995322
vt 0.628532 0.247762
vt 0.625000 0.496763
vt 0.375000 0.754912
vt 0.375000 0.564963
vt 0.625000 0.565235
vt 0.625000 0.562632
vn -0.672233 -0.740339 -0.000361
vn -0.672233 -0.740339 -0.000361
vn -0.672233 -0.740339 -0.000361
vn -0.672233 -0.740339 -0.000361
vn 0.000361 -0.740344 0.672229
vn 0.000361 -0.740344 0.672229
vn 0.000361 -0.740344 0.672229
vn 0.000361 -0.740344 0.672229
vn -0.697353 -0.165525 0.697353
vn -0.697353 -0.165525 0.697353
vn -0.697917 -0.160832 0.697886
vn -0.697919 -0.160818 0.697887
vn 0.672233 -0.740339 -0.000361
vn 0.672233 -0.740339 -0.000361
vn 0.672233 -0.740339 -0.000361
vn 0.672233 -0.740339 -0.000361
vn 0.688851 -0.165661 0.705720
vn 0.688851 -0.165661 0.705720
vn 0.689484 -0.161022 0.706175
vn 0.689486 -0.161010 0.706176
vn -0.251387 0.734327 0.630530
vn -0.630993 0.734150 0.250743
vn -0.619047 0.485245 0.617509
vn -0.619101 0.485108 0.617563
vn -0.321335 0.890780 0.321334
vn -0.251387 0.734327 0.630530
vn 0.250742 0.734150 0.630993
vn 0.321335 0.890780 0.321334
vn -0.630993 0.734150 0.250743
vn -0.321335 0.890780 0.321334
vn -0.321335 0.890780 -0.321334
vn -0.630530 0.734327 -0.251388
vn 0.630530 0.734327 0.251388
vn 0.250742 0.734150 0.630993
vn 0.617508 0.485245 0.619048
vn 0.617561 0.485108 0.619102
vn 0.321335 0.890780 0.321334
vn 0.630530 0.734327 0.251388
vn 0.630730 0.734332 -0.250871
vn 0.321335 0.890780 -0.321334
vn -0.630530 0.734327 -0.251388
vn -0.250742 0.734150 -0.630993
vn -0.617508 0.485245 -0.619048
vn -0.617561 0.485108 -0.619102
vn -0.250742 0.734150 -0.630993
vn -0.321335 0.890780 -0.321334
vn 0.321335 0.890780 -0.321334
vn 0.250870 0.734332 -0.630730
vn 0.250870 0.734332 -0.630730
vn 0.630730 0.734332 -0.250871
vn 0.618332 0.485253 -0.618220
vn 0.618316 0.485292 -0.618205
vn -0.697120 -0.167465 -0.697122
vn -0.697120 -0.167465 -0.697122
vn -0.697839 -0.161240 -0.697870
vn -0.697840 -0.161226 -0.697872
vn 0.000000 -0.733098 -0.680123
vn 0.000000 -0.733098 -0.680123
vn 0.000000 -0.733098 -0.680123
vn 0.000000 -0.733098 -0.680123
vn 0.697977 -0.167482 -0.696260
vn 0.697977 -0.167482 -0.696260
vn 0.698719 -0.161251 -0.696986
vn 0.698716 -0.161277 -0.696983
vn 0.000001 0.352439 0.935835
vn 0.000000 -0.114244 0.993453
vn 0.000000 -0.114264 0.993450
vn 0.000001 0.352356 0.935866
vn -0.993450 -0.114266 0.000000
vn -0.935866 0.352356 0.000001
vn -0.935835 0.352439 0.000001
vn -0.993453 -0.114241 0.000000
vn 0.935835 0.352438 0.000000
vn 0.993452 -0.114253 0.000000
vn 0.993452 -0.114250 0.000000
vn 0.935835 0.352438 0.000000
vn -0.000000 -0.114261 -0.993451
vn -0.000001 0.352413 -0.935845
vn -0.000001 0.352404 -0.935848
vn -0.000000 -0.114261 -0.993451
vn 0.000001 0.352439 0.935835
vn 0.000001 0.352356 0.935866
vn -0.000000 0.376813 0.926289
vn -0.000000 0.376813 0.926289
vn 0.000000 1.000000 0.000000
vn 0.000000 1.000000 0.000000
vn 0.000000 1.000000 0.000000
vn 0.000000 1.000000 0.000000
vn 0.000000 0.376813 -0.926289
vn 0.000000 0.376813 -0.926289
vn -0.000001 0.352404 -0.935848
vn -0.000001 0.352413 -0.935845
vn 0.000000 -1.000000 0.000000
vn 0.000000 -1.000000 0.000000
vn 0.000000 -1.000000 0.000000
vn 0.000000 -1.000000 0.000000
vn 0.935835 0.352438 0.000000
vn 0.935835 0.352438 0.000000
vn 0.926289 0.376813 0.000000
vn 0.926289 0.376813 0.000000
vn -0.935835 0.352439 0.000001
vn -0.935866 0.352356 0.000001
vn -0.926289 0.376813 -0.000000
vn -0.926289 0.376813 -0.000000
vn -0.000000 -0.114261 -0.993451
vn -0.000000 -0.114261 -0.993451
vn -0.000000 -0.118048 -0.993008
vn -0.000000 -0.118048 -0.993008
vn -0.993008 -0.118048 0.000000
vn -0.993008 -0.118048 0.000000
vn -0.993450 -0.114266 0.000000
vn -0.993453 -0.114241 0.000000
vn 0.000000 -0.118048 0.993008
vn 0.000000 -0.118048 0.993008
vn 0.000000 -0.114264 0.993450
vn 0.000000 -0.114244 0.993453
vn 0.993008 -0.118048 0.000000
vn 0.993008 -0.118048 0.000000
vn 0.993452 -0.114250 0.000000
vn 0.993452 -0.114253 0.000000
vn -0.532079 -0.658620 0.532082
vn -0.532079 -0.658620 0.532082
vn -0.532079 -0.658620 0.532082
vn 0.515116 -0.643357 0.566346
vn 0.515116 -0.643357 0.566346
vn 0.515116 -0.643357 0.566346
vn -0.251387 0.734327 0.630530
vn -0.321335 0.890780 0.321334
vn -0.630993 0.734150 0.250743
vn 0.630530 0.734327 0.251388
vn 0.321335 0.890780 0.321334
vn 0.250742 0.734150 0.630993
vn -0.630530 0.734327 -0.251388
vn -0.321335 0.890780 -0.321334
vn -0.250742 0.734150 -0.630993
vn 0.250870 0.734332 -0.630730
vn 0.321335 0.890780 -0.321334
vn 0.630730 0.734332 -0.250871
vn -0.697120 -0.167465 -0.697122
vn -0.550183 -0.628169 -0.550183
vn -0.697120 -0.167465 -0.697122
vn 0.697977 -0.167482 -0.696260
vn 0.550183 -0.628169 -0.550183
vn 0.697977 -0.167482 -0.696260
vn -0.619101 0.485108 0.617563
vn -0.619047 0.485245 0.617509
vn -0.697919 -0.160818 0.697887
vn -0.697917 -0.160832 0.697886
vn 0.617561 0.485108 0.619102
vn 0.617508 0.485245 0.619048
vn 0.689486 -0.161010 0.706176
vn 0.689484 -0.161022 0.706175
vn -0.617561 0.485108 -0.619102
vn -0.617508 0.485245 -0.619048
vn -0.697840 -0.161226 -0.697872
vn -0.697839 -0.161240 -0.697870
vn 0.698716 -0.161277 -0.696983
vn 0.698719 -0.161251 -0.696986
vn 0.618316 0.485292 -0.618205
vn 0.618332 0.485253 -0.618220
s off
g pCube1 group2
usemtl blinn1SG
f 1/2/1 3/1/2 21/57/3 20/42/4
f 2/53/5 1/2/6 6/5/7 5/3/8
f 3/49/9 2/4/10 28/26/11 27/50/12
f 4/54/13 6/5/14 23/22/15 22/6/16
f 5/51/17 4/7/18 32/32/19 31/27/20
f 7/8/21 9/45/22 26/29/23 25/38/24
f 8/10/25 7/8/26 12/12/27 11/39/28
f 9/9/29 8/10/30 14/16/31 13/11/32
f 10/55/33 12/12/34 30/28/35 29/43/36
f 11/39/37 10/13/38 18/56/39 17/17/40
f 13/14/41 15/40/42 34/35/43 33/15/44
f 15/40/45 14/16/46 17/17/47 16/41/48
f 16/41/49 18/18/50 40/60/51 39/36/52
f 19/21/53 21/19/54 36/20/55 35/47/56
f 20/42/57 19/21/58 24/24/59 23/22/60
f 22/23/61 24/24/62 38/37/63 37/25/64
f 25/38/65 28/26/66 31/27/67 30/28/68
f 27/50/69 26/29/70 33/30/71 36/31/72
f 29/43/73 32/32/74 37/33/75 40/34/76
f 35/47/77 34/35/78 39/36/79 38/37/80
f 25/38/81 30/28/82 12/12/83 7/8/84
f 8/10/85 11/39/86 17/17/87 14/16/88
f 15/40/89 16/41/90 39/36/91 34/35/92
f 20/42/93 23/22/94 6/5/95 1/2/96
f 29/43/97 40/34/98 18/44/99 10/55/100
f 33/30/101 26/29/102 9/45/103 13/46/104
f 35/47/105 38/37/106 24/24/107 19/21/108
f 21/48/109 3/49/110 27/50/111 36/31/112
f 2/4/113 5/51/114 31/27/115 28/26/116
f 4/7/117 22/52/118 37/33/119 32/32/120
f 1/2/121 2/53/122 3/1/123
f 4/54/124 5/3/125 6/5/126
f 7/8/127 8/10/128 9/45/129
f 10/55/130 11/39/131 12/12/132
f 13/11/133 14/16/134 15/40/135
f 16/41/136 17/17/137 18/56/138
f 19/21/139 20/42/140 21/57/141
f 22/6/142 23/22/143 24/24/144
f 25/38/145 26/29/146 27/50/147 28/26/148
f 29/43/149 30/28/150 31/27/151 32/32/152
f 33/15/153 34/35/154 35/47/155 36/58/156
f 37/59/157 38/37/158 39/36/159 40/60/160
g default
v -13.030753 84.997155 13.030753
v -13.030753 85.828820 13.862414
v -13.862414 85.828820 13.030753
v 13.862414 85.828820 13.030753
v 13.030753 85.828820 13.862414
v 13.030753 84.997155 13.030753
v -13.862414 111.890311 13.030753
v -13.030753 111.890311 13.862414
v -13.030753 112.721983 13.030753
v 13.030753 112.721983 13.030753
v 13.030753 111.890311 13.862414
v 13.862414 111.890311 13.030753
v -13.862414 111.890311 -13.030753
v -13.030753 112.721983 -13.030753
v -13.030753 111.890311 -13.862414
v 13.030753 111.890311 -13.862414
v 13.030753 112.721983 -13.030753
v 13.862414 111.890311 -13.030753
v -13.862414 85.828820 -13.030753
v -13.030753 85.828820 -13.862414
v -13.030753 84.997155 -13.030753
v 13.030753 84.997155 -13.030753
v 13.030753 85.828820 -13.862414
v 13.862414 85.828820 -13.030753
vt 0.382499 0.992501
vt 0.375000 0.992501
vt 0.375000 0.757499
vt 0.382499 0.000000
vt 0.382499 0.007499
vt 0.625000 0.992501
vt 0.617501 0.992501
vt 0.625000 0.757499
vt 0.632499 0.007499
vt 0.375000 0.257499
vt 0.375000 0.492501
vt 0.382499 0.242501
vt 0.617501 0.242501
vt 0.625000 0.257499
vt 0.375000 0.507499
vt 0.375000 0.742501
vt 0.382499 0.492501
vt 0.617501 0.492501
vt 0.625000 0.507499
vt 0.625000 0.742501
vt 0.382499 0.742501
vt 0.617501 0.742501
vt 0.617501 0.757499
vt 0.617501 0.007499
vt 0.382499 0.257499
vt 0.617501 0.257499
vt 0.382499 0.507499
vt 0.617501 0.507499
vt 0.382499 0.757499
vt 0.867501 0.007499
vt 0.867501 0.242501
vt 0.132499 0.007499
vt 0.367501 0.007499
vt 0.367501 0.242501
vt 0.132499 0.242501
vt 0.617501 0.000000
vt 0.632499 0.242501
vt 0.625000 0.492501
vn -0.707108 -0.707105 0.000000
vn -0.707108 -0.707105 0.000000
vn -0.707108 -0.707105 0.000000
vn -0.707108 -0.707105 0.000000
vn 0.000000 -0.707105 0.707108
vn 0.000000 -0.707105 0.707108
vn 0.000000 -0.707105 0.707108
vn 0.000000 -0.707105 0.707108
vn -0.707107 0.000000 0.707107
vn -0.707107 0.000000 0.707107
vn -0.707107 0.000000 0.707107
vn -0.707107 0.000000 0.707107
vn 0.707108 -0.707105 0.000000
vn 0.707108 -0.707105 0.000000
vn 0.707108 -0.707105 0.000000
vn 0.707108 -0.707105 0.000000
vn 0.707107 0.000000 0.707107
vn 0.707107 0.000000 0.707107
vn 0.707107 0.000000 0.707107
vn 0.707107 0.000000 0.707107
vn -0.707111 0.707102 0.000000
vn -0.707111 0.707102 0.000000
vn -0.707111 0.707102 0.000000
vn -0.707111 0.707102 0.000000
vn 0.000000 0.707102 0.707111
vn 0.000000 0.707102 0.707111
vn 0.000000 0.707102 0.707111
vn 0.000000 0.707102 0.707111
vn 0.707111 0.707102 0.000000
vn 0.707111 0.707102 0.000000
vn 0.707111 0.707102 0.000000
vn 0.707111 0.707102 0.000000
vn -0.707107 0.000000 -0.707107
vn -0.707107 0.000000 -0.707107
vn -0.707107 0.000000 -0.707107
vn -0.707107 0.000000 -0.707107
vn 0.000000 0.707102 -0.707111
vn 0.000000 0.707102 -0.707111
vn 0.000000 0.707102 -0.707111
vn 0.000000 0.707102 -0.707111
vn 0.707107 0.000000 -0.707107
vn 0.707107 0.000000 -0.707107
vn 0.707107 0.000000 -0.707107
vn 0.707107 0.000000 -0.707107
vn 0.000000 -0.707105 -0.707108
vn 0.000000 -0.707105 -0.707108
vn 0.000000 -0.707105 -0.707108
vn 0.000000 -0.707105 -0.707108
vn 0.000000 0.000000 1.000000
vn 0.000000 0.000000 1.000000
vn 0.000000 0.000000 1.000000
vn 0.000000 0.000000 1.000000
vn 0.000000 1.000000 0.000000
vn 0.000000 1.000000 0.000000
vn 0.000000 1.000000 0.000000
vn 0.000000 1.000000 0.000000
vn 0.000000 0.000000 -1.000000
vn 0.000000 0.000000 -1.000000
vn 0.000000 0.000000 -1.000000
vn 0.000000 0.000000 -1.000000
vn 0.000000 -1.000000 0.000000
vn 0.000000 -1.000000 0.000000
vn 0.000000 -1.000000 0.000000
vn 0.000000 -1.000000 0.000000
vn 1.000000 0.000000 0.000000
vn 1.000000 0.000000 0.000000
vn 1.000000 0.000000 0.000000
vn 1.000000 0.000000 0.000000
vn -1.000000 0.000000 0.000000
vn -1.000000 0.000000 0.000000
vn -1.000000 0.000000 0.000000
vn -1.000000 0.000000 0.000000
vn -0.577351 -0.577348 0.577352
vn -0.577351 -0.577348 0.577352
vn -0.577351 -0.577348 0.577352
vn 0.577351 -0.577348 0.577352
vn 0.577351 -0.577348 0.577352
vn 0.577351 -0.577348 0.577352
vn -0.577352 0.577346 0.577353
vn -0.577352 0.577346 0.577353
vn -0.577352 0.577346 0.577353
vn 0.577352 0.577346 0.577353
vn 0.577352 0.577346 0.577353
vn 0.577352 0.577346 0.577353
vn -0.577352 0.577346 -0.577353
vn -0.577352 0.577346 -0.577353
vn -0.577352 0.577346 -0.577353
vn 0.577352 0.577346 -0.577353
vn 0.577352 0.577346 -0.577353
vn 0.577352 0.577346 -0.577353
vn -0.577351 -0.577348 -0.577352
vn -0.577351 -0.577348 -0.577352
vn -0.577351 -0.577348 -0.577352
vn 0.577351 -0.577348 -0.577352
vn 0.577351 -0.577348 -0.577352
vn 0.577351 -0.577348 -0.577352
s off
g group2 pCube2
usemtl blinn1SG
f 41/61/161 43/62/162 59/63/163 61/89/164
f 42/65/165 41/64/166 46/96/167 45/84/168
f 43/93/169 42/65/170 48/72/171 47/94/172
f 44/66/173 46/67/174 62/83/175 64/68/176
f 45/84/177 44/69/178 52/97/179 51/73/180
f 47/70/181 49/85/182 54/77/183 53/71/184
f 49/85/185 48/72/186 51/73/187 50/86/188
f 50/86/189 52/74/190 58/98/191 57/78/192
f 53/75/193 55/87/194 60/81/195 59/76/196
f 55/87/197 54/77/198 57/78/199 56/88/200
f 56/88/201 58/79/202 64/80/203 63/82/204
f 61/89/205 60/81/206 63/82/207 62/83/208
f 42/65/209 45/84/210 51/73/211 48/72/212
f 49/85/213 50/86/214 57/78/215 54/77/216
f 55/87/217 56/88/218 63/82/219 60/81/220
f 61/89/221 62/83/222 46/67/223 41/61/224
f 44/69/225 64/90/226 58/91/227 52/97/228
f 59/92/229 43/93/230 47/94/231 53/95/232
f 41/64/233 42/65/234 43/93/235
f 44/69/236 45/84/237 46/96/238
f 47/94/239 48/72/240 49/85/241
f 50/86/242 51/73/243 52/97/244
f 53/71/245 54/77/246 55/87/247
f 56/88/248 57/78/249 58/98/250
f 59/76/251 60/81/252 61/89/253
f 62/83/254 63/82/255 64/80/256
